<?xml version="1.0" standalone="no"?>
<!DOCTYPE svg PUBLIC "-//W3C//DTD SVG 20010904//EN"
 "http://www.w3.org/TR/2001/REC-SVG-20010904/DTD/svg10.dtd">
<svg version="1.0" xmlns="http://www.w3.org/2000/svg"
 width="700.000000pt" height="700.000000pt" viewBox="0 0 700.000000 700.000000"
 preserveAspectRatio="xMidYMid meet">
<metadata>
Created by potrace 1.14, written by Peter Selinger 2001-2017
</metadata>
<g transform="translate(0.000000,700.000000) scale(0.100000,-0.100000)"
fill="#000000" stroke="none">
<path d="M3458 5495 c-2 -2 -33 -5 -69 -9 -71 -6 -194 -43 -262 -77 -166 -85
-312 -238 -384 -404 -53 -123 -67 -195 -67 -345 1 -116 5 -147 27 -221 54
-178 159 -327 308 -438 63 -46 177 -105 227 -116 26 -5 32 -11 27 -23 -3 -10
-95 -171 -203 -358 l-197 -342 -348 0 c-191 0 -351 -2 -354 -5 -4 -4 -7 -1516
-4 -1629 1 -17 71 -18 1336 -18 l1335 0 0 825 0 825 -22 1 c-13 0 -171 1 -352
2 l-329 2 -90 155 c-49 85 -100 173 -112 195 -13 22 -62 107 -109 189 -48 82
-88 153 -89 158 -1 6 15 16 36 24 471 168 691 694 477 1140 -130 270 -405 453
-702 467 -43 2 -79 3 -80 2z m161 -160 c121 -22 258 -94 350 -184 134 -131
202 -295 202 -485 0 -50 -2 -99 -5 -106 -3 -8 -7 -26 -10 -40 -21 -119 -106
-263 -214 -360 -63 -57 -218 -138 -271 -142 -34 -3 -35 -1 -100 109 -36 61
-69 114 -72 118 -4 3 -37 -49 -75 -115 -78 -136 -67 -131 -176 -90 -140 52
-283 181 -353 320 -52 102 -69 178 -69 300 -1 119 3 147 30 228 80 236 303
420 543 449 25 3 47 6 49 8 5 4 135 -3 171 -10z m136 -1825 c106 -184 190
-337 185 -340 -6 -4 -831 -5 -887 -1 -6 1 27 67 74 149 235 405 277 479 287
499 13 26 20 28 94 28 l54 -1 193 -334z m923 -505 c7 -7 7 -1334 0 -1340 -6
-6 -2359 -7 -2365 -1 -3 3 -5 815 -3 1253 l0 92 133 3 c221 5 2230 -2 2235 -7z"/>
</g>
</svg>
