<?xml version="1.0" standalone="no"?>
<!DOCTYPE svg PUBLIC "-//W3C//DTD SVG 20010904//EN"
 "http://www.w3.org/TR/2001/REC-SVG-20010904/DTD/svg10.dtd">
<svg version="1.0" xmlns="http://www.w3.org/2000/svg"
 width="1000.000000pt" height="1000.000000pt" viewBox="0 0 1000.000000 1000.000000"
 preserveAspectRatio="xMidYMid meet">
<metadata>
Created by potrace 1.11, written by Peter Selinger 2001-2013
</metadata>
<g transform="translate(0.000000,1000.000000) scale(0.100000,-0.100000)"
fill="#000000" stroke="none">
<path d="M7405 8709 c-988 -103 -1672 -1055 -1451 -2019 112 -489 431 -897
877 -1120 744 -374 1655 -136 2120 555 380 563 380 1297 1 1860 -340 505 -943
787 -1547 724z m203 -126 c-16 -2 -40 -2 -55 0 -16 2 -3 4 27 4 30 0 43 -2 28
-4z m-1561 -1555 c-2 -18 -4 -6 -4 27 0 33 2 48 4 33 2 -15 2 -42 0 -60z
m3060 0 c-2 -18 -4 -6 -4 27 0 33 2 48 4 33 2 -15 2 -42 0 -60z m-1499 -1505
c-16 -2 -40 -2 -55 0 -16 2 -3 4 27 4 30 0 43 -2 28 -4z"/>
<path d="M474 4472 c-54 -8 -72 -80 -40 -155 43 -105 206 -290 329 -375 106
-73 193 -113 375 -173 l162 -54 11 -39 c10 -35 2 -135 -17 -233 l-4 -23 -515
0 c-283 0 -515 -3 -515 -6 0 -15 118 -313 172 -434 102 -228 175 -367 311
-594 80 -135 203 -310 320 -461 498 -639 1157 -1154 1897 -1485 305 -137 652
-250 990 -324 659 -145 1441 -145 2100 0 585 128 1159 364 1633 671 54 34 100
63 103 63 12 0 360 267 469 360 269 230 581 569 789 859 77 105 246 357 246
365 0 2 27 51 59 108 120 211 232 454 335 720 31 80 56 149 56 152 0 3 -1822
6 -4050 6 l-4050 0 0 43 c0 23 7 82 16 130 13 69 21 91 38 102 12 8 101 42
199 74 97 33 200 72 229 87 193 97 366 261 454 429 49 94 43 161 -17 185 -30
13 -40 9 -116 -42 -71 -47 -118 -56 -535 -98 -179 -18 -317 -46 -367 -74 -20
-11 -31 -10 -82 11 -66 27 -227 52 -519 82 -247 25 -289 35 -353 78 -61 41
-84 50 -113 45z m81 -140 c-3 -3 -11 0 -18 7 -9 10 -8 11 6 5 10 -3 15 -9 12
-12z m1914 -32 c-30 -48 -50 -70 -29 -31 13 25 13 44 0 36 -5 -3 -10 -2 -10 3
0 6 49 36 67 41 2 1 -11 -21 -28 -49z m-1782 -16 c-3 -3 -12 -4 -19 -1 -8 3
-5 6 6 6 11 1 17 -2 13 -5z m50 -10 c-3 -3 -12 -4 -19 -1 -8 3 -5 6 6 6 11 1
17 -2 13 -5z m70 -10 c-3 -3 -12 -4 -19 -1 -8 3 -5 6 6 6 11 1 17 -2 13 -5z
m1453 2 c0 -2 -11 -6 -25 -8 -13 -3 -22 -1 -19 3 5 9 44 13 44 5z m-1238 -25
c8 -7 -170 6 -187 14 -5 3 33 2 85 -1 52 -3 98 -9 102 -13z m1387 -33 c-30
-42 -135 -147 -176 -177 -53 -36 -38 -18 28 35 34 27 84 77 111 111 53 67 75
85 37 31z m-679 -18 c-8 -5 -19 -10 -25 -10 -5 0 -3 5 5 10 8 5 20 10 25 10 6
0 3 -5 -5 -10z m290 -268 c0 -9 -109 -46 -116 -39 -3 2 16 10 41 17 25 7 48
17 51 21 7 11 24 12 24 1z m-760 -82 c13 -9 13 -10 0 -10 -8 0 -22 5 -30 10
-13 9 -13 10 0 10 8 0 22 -5 30 -10z m365 -69 c3 -5 1 -12 -5 -16 -5 -3 -10 1
-10 9 0 18 6 21 15 7z m-193 -136 c0 -38 -8 -92 -16 -120 l-15 -50 7 70 c4 39
7 101 6 139 -1 53 1 64 9 50 6 -11 10 -50 9 -89z"/>
</g>
</svg>
