<?xml version="1.0" standalone="no"?>
<!DOCTYPE svg PUBLIC "-//W3C//DTD SVG 20010904//EN"
 "http://www.w3.org/TR/2001/REC-SVG-20010904/DTD/svg10.dtd">
<svg version="1.0" xmlns="http://www.w3.org/2000/svg"
 width="700.000000pt" height="700.000000pt" viewBox="0 0 700.000000 700.000000"
 preserveAspectRatio="xMidYMid meet">
<metadata>
Created by potrace 1.11, written by Peter Selinger 2001-2013
</metadata>
<g transform="translate(0.000000,700.000000) scale(0.100000,-0.100000)"
fill="#000000" stroke="none">
<path d="M3389 6286 c-2 -2 -29 -7 -59 -11 -228 -27 -473 -146 -654 -316 -152
-143 -256 -306 -320 -501 -34 -102 -40 -127 -56 -243 -8 -60 -6 -307 3 -322 3
-4 8 -24 11 -43 10 -63 15 -82 37 -149 121 -364 419 -665 768 -775 166 -53
216 -60 396 -60 195 0 326 29 505 111 72 33 177 96 230 138 56 45 200 194 239
248 99 136 184 334 208 482 3 17 8 49 12 71 11 57 11 234 0 317 -9 72 -34 188
-49 222 -4 11 -14 36 -21 55 -7 19 -28 67 -47 105 -166 336 -473 571 -847 650
-72 16 -345 31 -356 21z m312 -82 c271 -51 509 -187 682 -392 380 -450 348
-1139 -73 -1551 -175 -171 -382 -276 -625 -317 -78 -13 -322 -13 -372 0 -13 3
-31 8 -41 10 -454 102 -790 438 -888 890 -22 100 -26 312 -9 411 20 112 21
113 44 182 139 412 495 709 926 773 82 12 277 9 356 -6z"/>
<path d="M1369 3135 c-1 -3 -1 -14 -1 -25 0 -11 0 -25 1 -30 1 -7 712 -9 2129
-8 l2127 3 3 33 3 32 -2130 0 c-1172 0 -2131 -2 -2132 -5z"/>
<path d="M4479 2638 c-1 -2 -3 -148 -3 -325 l-2 -323 326 -1 c329 -1 351 -1
360 8 3 2 5 148 5 324 l0 319 -342 0 c-189 0 -344 -1 -344 -2z"/>
<path d="M1370 2330 l0 -36 1308 1 c719 0 1312 3 1318 7 12 8 12 43 1 54 -4 4
-596 8 -1317 8 l-1310 1 0 -35z"/>
<path d="M1374 1581 c-10 -10 -3 -59 9 -63 6 -2 966 -3 2132 -3 1989 1 2120 2
2119 18 -1 9 -2 25 -3 35 -1 16 -109 17 -2127 17 -1169 0 -2128 -2 -2130 -4z"/>
</g>
</svg>
