<?xml version="1.0" standalone="no"?>
<!DOCTYPE svg PUBLIC "-//W3C//DTD SVG 20010904//EN"
 "http://www.w3.org/TR/2001/REC-SVG-20010904/DTD/svg10.dtd">
<svg version="1.0" xmlns="http://www.w3.org/2000/svg"
 width="700.000000pt" height="700.000000pt" viewBox="0 0 700.000000 700.000000"
 preserveAspectRatio="xMidYMid meet">
<metadata>
Created by potrace 1.11, written by Peter Selinger 2001-2013
</metadata>
<g transform="translate(0.000000,700.000000) scale(0.100000,-0.100000)"
fill="#000000" stroke="none">
<path d="M3316 6274 c-477 -86 -857 -454 -968 -936 -28 -121 -30 -383 -5 -496
66 -289 216 -537 426 -702 153 -120 281 -185 467 -237 93 -25 112 -27 299 -27
187 0 206 2 299 27 464 128 785 466 893 939 25 113 23 375 -5 496 -66 285
-226 536 -450 704 -164 124 -335 199 -526 233 -110 19 -322 18 -430 -1z m433
-70 c103 -18 249 -70 336 -119 671 -375 798 -1274 256 -1815 -219 -219 -494
-332 -806 -332 -312 0 -587 113 -806 332 -542 541 -415 1440 256 1815 222 124
494 167 764 119z"/>
<path d="M1397 3143 c-4 -3 -7 -19 -7 -35 l0 -28 2136 0 2135 0 -3 33 -3 32
-2126 3 c-1169 1 -2129 -1 -2132 -5z"/>
<path d="M4502 2318 l3 -323 343 -3 342 -2 0 325 0 325 -345 0 -345 0 2 -322z
m618 -3 l0 -255 -272 2 -273 3 -3 253 -2 252 275 0 275 0 0 -255z"/>
<path d="M1400 2335 l0 -35 1315 0 1315 0 0 35 0 35 -1315 0 -1315 0 0 -35z"/>
<path d="M1400 1555 l0 -35 2130 0 2130 0 0 35 0 35 -2130 0 -2130 0 0 -35z"/>
</g>
</svg>
